# xmcd CD database file
#
# Track frame offsets:
#	150
#	15510
#	29766
#	45999
#	60324
#	80353
#	95899
#	105805
#	123001
#	138835
#	157422
#	175979
#	193430
#	206470
#	221015
#
# Disc length: 3219 seconds
#
# Revision: 0
# Processed by: cddbd v1.5.1PL0 Copyright (c) Steve Scherf et al.
# Submitted via: CDex 1.51
#
DISCID=cb0c910f
DTITLE=Shane Warner - Absolutely
DYEAR=2005
DGENRE=Country
TTITLE0=Shane Warner - I Could Get Used To This
TTITLE1=Shane Warner - Just Doesn't Get It
TTITLE2=Shane Warner - Souvenirs
TTITLE3=Shane Warner - Without Penny
TTITLE4=Shane Warner - Heart In Hand
TTITLE5=Shane Warner - Southern Wind
TTITLE6=Shane Warner - You're My Favorite
TTITLE7=Shane Warner - Tide And The Moon
TTITLE8=Shane Warner - Famous
TTITLE9=Shane Warner - Fallen In Love Way Over My Heart
TTITLE10=Shane Warner - I Saveda Kiss For You
TTITLE11=Shane Warner - Baby I'd Die For You
TTITLE12=Shane Warner - 3 Beers To Mexico
TTITLE13=Shane Warner - What's Your Name
TTITLE14=Shane Warner - Baby Let's Drive
EXTD=YEAR: 2005
EXTT0=
EXTT1=
EXTT2=
EXTT3=
EXTT4=
EXTT5=
EXTT6=
EXTT7=
EXTT8=
EXTT9=
EXTT10=
EXTT11=
EXTT12=
EXTT13=
EXTT14=
PLAYORDER=
